<svg width="569" height="495" viewBox="0 0 569 495" fill="none" xmlns="http://www.w3.org/2000/svg">
<path d="M142.25 0C63.6569 0 0 69.2227 0 154.688V371.25C0 405.378 25.5161 433.125 56.9 433.125H61.8787C73.6143 469.187 105.087 495 142.25 495C179.413 495 210.975 469.187 222.621 433.125H346.29C358.025 469.187 389.587 495 426.661 495C463.735 495 495.297 469.187 507.032 433.125H512.1C543.484 433.125 569 405.378 569 371.25V92.8125C569 41.5723 530.77 0 483.65 0H142.25ZM426.75 355.781C450.31 355.781 469.425 376.567 469.425 402.188C469.425 427.808 450.31 448.594 426.75 448.594C403.19 448.594 384.075 427.808 384.075 402.188C384.075 376.567 403.19 355.781 426.75 355.781ZM142.25 355.781C165.81 355.781 184.925 376.567 184.925 402.188C184.925 427.808 165.81 448.594 142.25 448.594C118.69 448.594 99.575 427.808 99.575 402.188C99.575 376.567 118.69 355.781 142.25 355.781ZM142.25 61.875C157.986 61.875 170.7 75.7002 170.7 92.8125V278.438C170.7 295.55 157.986 309.375 142.25 309.375H85.35C69.6136 309.375 56.9 295.55 56.9 278.438V154.688C56.9 103.447 95.1297 61.875 142.25 61.875ZM348.512 216.562H256.05C240.314 216.562 227.6 202.737 227.6 185.625V92.8125C227.6 75.7002 240.314 61.875 256.05 61.875H348.512V216.562ZM483.65 61.875C499.386 61.875 512.1 75.7002 512.1 92.8125V185.625C512.1 202.737 499.386 216.562 483.65 216.562H391.188V61.875H483.65Z" fill="black"/>
</svg>
